<svg width="195" height="177" viewBox="0 0 195 177" fill="none" xmlns="http://www.w3.org/2000/svg">
<path d="M97.62 88.5708L120.795 107.111M97.62 88.5708V172V88.5708ZM97.62 88.5708L74.4452 107.111L97.62 88.5708Z" stroke="white" stroke-width="9" stroke-linecap="round" stroke-linejoin="round"/>
<path d="M33.0454 61.8472C24.278 64.0533 16.618 69.3851 11.5044 76.8407C6.39091 84.2964 4.17589 93.3627 5.27554 102.336C6.37518 111.31 10.7138 119.573 17.4762 125.573C24.2387 131.574 32.9595 134.898 42.0002 134.922H51.2701" stroke="white" stroke-width="9" stroke-linecap="round" stroke-linejoin="round"/>
<path d="M133.124 43.5012C129.955 30.955 122.135 20.083 111.248 13.0889C100.361 6.09493 87.2214 3.50229 74.4936 5.83658C61.7658 8.17087 50.4018 15.2574 42.7052 25.6597C35.0086 36.062 31.5553 49.0017 33.0454 61.8557C33.0454 61.8557 34.4637 70.0317 37.3652 74.6667" stroke="white" stroke-width="9" stroke-linecap="round" stroke-linejoin="round"/>
<path d="M143.97 134.921C150.514 134.917 156.984 133.526 162.953 130.841C168.922 128.156 174.254 124.237 178.599 119.343C182.945 114.448 186.204 108.689 188.163 102.444C190.122 96.1992 190.736 89.6102 189.965 83.1108C189.194 76.6115 187.055 70.3491 183.689 64.7359C180.323 59.1227 175.807 54.286 170.437 50.5441C165.068 46.8022 158.966 44.2399 152.535 43.0259C146.104 41.812 139.488 41.9739 133.124 43.5009L120.795 46.8566" stroke="white" stroke-width="9" stroke-linecap="round" stroke-linejoin="round"/>
</svg>
