<svg width="32" height="30" viewBox="0 0 32 31" fill="none" xmlns="http://www.w3.org/2000/svg">
<path d="M9.13006 0C4.14551 0 0.0909119 4.05836 0.0909119 9.04419V21.9609C0.0909119 26.9454 4.14927 31 9.1351 31H22.0518C27.0363 31 31.0909 26.9416 31.0909 21.9558V9.03914C31.0909 4.0546 27.0326 0 22.0467 0H9.13006ZM24.6326 5.16667C25.3456 5.16667 25.9242 5.74533 25.9242 6.45833C25.9242 7.17133 25.3456 7.75 24.6326 7.75C23.9196 7.75 23.3409 7.17133 23.3409 6.45833C23.3409 5.74533 23.9196 5.16667 24.6326 5.16667ZM15.5909 7.75C19.865 7.75 23.3409 11.2259 23.3409 15.5C23.3409 19.7741 19.865 23.25 15.5909 23.25C11.3168 23.25 7.84091 19.7741 7.84091 15.5C7.84091 11.2259 11.3168 7.75 15.5909 7.75ZM15.5909 10.3333C14.2206 10.3333 12.9065 10.8777 11.9375 11.8466C10.9686 12.8156 10.4242 14.1297 10.4242 15.5C10.4242 16.8703 10.9686 18.1844 11.9375 19.1534C12.9065 20.1223 14.2206 20.6667 15.5909 20.6667C16.9612 20.6667 18.2754 20.1223 19.2443 19.1534C20.2132 18.1844 20.7576 16.8703 20.7576 15.5C20.7576 14.1297 20.2132 12.8156 19.2443 11.8466C18.2754 10.8777 16.9612 10.3333 15.5909 10.3333Z" fill="white"/>
</svg>
