<svg width="15" height="16" viewBox="0 0 15 16" fill="none" xmlns="http://www.w3.org/2000/svg">
<path d="M0 1.75219C8.42577e-06 1.523 0.0630436 1.29823 0.182211 1.10246C0.301379 0.906684 0.472089 0.747453 0.675669 0.642179C0.87925 0.536906 1.10786 0.489644 1.3365 0.505564C1.56513 0.521483 1.78499 0.599971 1.97201 0.732443L10.7199 6.93466C10.8823 7.04956 11.0151 7.20161 11.1069 7.37816C11.1988 7.5547 11.2472 7.75064 11.248 7.94966C11.2489 8.14867 11.2022 8.34502 11.1118 8.52234C11.0215 8.69967 10.8901 8.85286 10.7286 8.96916L1.98076 15.2639C1.79414 15.3985 1.57398 15.4789 1.34454 15.4964C1.1151 15.5139 0.885293 15.4676 0.680448 15.3628C0.475604 15.258 0.303674 15.0987 0.18361 14.9024C0.0635452 14.7061 7.66038e-06 14.4805 0 14.2504V1.75219ZM14.9963 1.12485C14.9963 0.959126 14.9305 0.800194 14.8133 0.683013C14.6961 0.565832 14.5372 0.5 14.3714 0.5C14.2057 0.5 14.0468 0.565832 13.9296 0.683013C13.8124 0.800194 13.7466 0.959126 13.7466 1.12485V14.8714C13.7466 15.0372 13.8124 15.1961 13.9296 15.3133C14.0468 15.4305 14.2057 15.4963 14.3714 15.4963C14.5372 15.4963 14.6961 15.4305 14.8133 15.3133C14.9305 15.1961 14.9963 15.0372 14.9963 14.8714V1.12485Z" fill="white"/>
</svg>
