<svg width="36" height="36" viewBox="0 0 36 36" fill="none" xmlns="http://www.w3.org/2000/svg">
<path d="M18 0C8.05982 0 0 8.05982 0 18C0 27.9402 8.05982 36 18 36C27.9402 36 36 27.9402 36 18C36 8.05982 27.9402 0 18 0ZM23.7897 18.2772L15.0147 24.6616C14.9666 24.6962 14.9099 24.7168 14.8508 24.7213C14.7918 24.7257 14.7326 24.7138 14.6799 24.6868C14.6272 24.6598 14.5829 24.6188 14.5519 24.5683C14.521 24.5178 14.5046 24.4597 14.5045 24.4004V11.6397C14.5043 11.5804 14.5205 11.5221 14.5514 11.4714C14.5823 11.4207 14.6266 11.3796 14.6794 11.3525C14.7323 11.3255 14.7916 11.3136 14.8508 11.3182C14.9099 11.3228 14.9667 11.3437 15.0147 11.3786L23.7897 17.7589C23.8312 17.7882 23.865 17.8271 23.8883 17.8722C23.9117 17.9173 23.9239 17.9673 23.9239 18.0181C23.9239 18.0689 23.9117 18.1189 23.8883 18.164C23.865 18.2091 23.8312 18.2479 23.7897 18.2772Z" fill="white"/>
</svg>
