<svg width="15" height="16" viewBox="0 0 15 16" fill="none" xmlns="http://www.w3.org/2000/svg">
<path d="M15 14.2478C15 14.477 14.9369 14.7018 14.8177 14.8975C14.6985 15.0933 14.5278 15.2525 14.3242 15.3578C14.1205 15.4631 13.8919 15.5104 13.6632 15.4944C13.4345 15.4785 13.2146 15.4 13.0275 15.2676L4.2775 9.06534C4.11496 8.95044 3.98222 8.79839 3.89033 8.62184C3.79844 8.44529 3.75005 8.24936 3.7492 8.05034C3.74834 7.85133 3.79504 7.65498 3.88541 7.47765C3.97578 7.30033 4.10721 7.14714 4.26875 7.03084L13.0188 0.73615C13.2054 0.60154 13.4256 0.521069 13.6551 0.503606C13.8846 0.486141 14.1145 0.532363 14.3194 0.637176C14.5243 0.741989 14.6963 0.901324 14.8163 1.09762C14.9364 1.29391 15 1.51955 15 1.74965L15 14.2478ZM5.46257e-08 14.8752C4.01381e-08 15.0409 0.0658474 15.1998 0.183058 15.317C0.300268 15.4342 0.45924 15.5 0.625 15.5C0.79076 15.5 0.949732 15.4342 1.06694 15.317C1.18415 15.1998 1.25 15.0409 1.25 14.8752L1.25 1.12855C1.25 0.962833 1.18415 0.8039 1.06694 0.68672C0.949733 0.569538 0.790761 0.503707 0.625001 0.503707C0.459241 0.503707 0.300269 0.569538 0.183059 0.68672C0.0658487 0.8039 1.27088e-06 0.962833 1.25639e-06 1.12855L5.46257e-08 14.8752Z" fill="white"/>
</svg>
